<svg xml:space="preserve" viewBox="45 145 128 185" version="1.1" xmlns:xlink="http://www.w3.org/1999/xlink" xmlns="http://www.w3.org/2000/svg" style="max-height: 500px" width="128" height="185">
<desc>Created with Fabric.js 3.6.3</desc>
<defs>
</defs>
<g style="" transform="matrix(1 0 0 1 402.6184580673505 220.0008970588235)"><path d="M-131.87-1.80C-131.27-2.07-126.98-4.21-126.98-10.99C-126.98-17.29-131.67-23.12-142.60-23.12L-161.38-23.12C-162.92-23.12-163.32-22.39-163.32-21.18L-163.32 19.12C-163.32 20.33-162.92 21.06-161.38 21.06L-141.66 21.06C-132.34 21.06-125.71 16.70-125.71 8.19C-125.71 0.95-131.34-1.60-131.87-1.80ZM-141.53 11.54L-152.79 11.54L-152.79-13.67L-142.60-13.67C-139.12-13.67-137.04-12.93-137.04-9.91C-137.04-7.30-138.71-5.89-142.60-5.89L-142.60-5.89L-143.47-5.89C-145.02-5.89-145.42-5.15-145.42-3.95L-145.42 1.15C-145.42 2.36-145.02 3.09-143.47 3.09L-141.93 3.09C-138.71 3.09-136.37 4.03-136.37 7.18C-136.37 10.20-138.24 11.54-141.53 11.54Z" opacity="1" fill="#2B2B2B"/><path d="M-85.27 11.68L-106.66 11.68L-106.66 2.83L-88.69 2.83C-87.15 2.83-86.75 2.09-86.75 0.88L-86.75-4.35C-86.75-5.56-87.15-6.29-88.69-6.29L-106.66-6.29L-106.66-13.60L-86.41-13.60C-84.87-13.60-84.47-14.34-84.47-15.55L-84.47-21.11C-84.47-22.32-84.87-23.06-86.41-23.06L-115.31-23.06C-116.85-23.06-117.26-22.32-117.26-21.11L-117.26 19.12C-117.26 20.33-116.85 21.06-115.31 21.06L-85.27 21.06C-83.73 21.06-83.33 20.33-83.33 19.12L-83.33 13.62C-83.33 12.41-83.73 11.68-85.27 11.68Z" opacity="1" fill="#2B2B2B"/><path d="M-41.36-23.06L-47.79-23.06C-49.00-23.06-49.74-22.65-49.74-21.11L-49.74 2.15L-63.95-20.78C-64.82-22.12-65.29-23.06-66.97-23.06L-73.27-23.06C-74.81-23.06-75.22-22.32-75.22-21.11L-75.22 19.12C-75.22 20.66-74.48 21.06-73.27 21.06L-66.63 21.06C-65.43 21.06-64.69 20.66-64.69 19.12L-64.69-4.21L-50.48 18.78C-49.60 20.12-49.13 21.06-47.46 21.06L-41.36 21.06C-39.81 21.06-39.41 20.33-39.41 19.12L-39.41-21.11C-39.41-22.65-40.15-23.06-41.36-23.06Z" opacity="1" fill="#2B2B2B"/><path d="M4.51 7.99C4.51 6.38 3.97 5.71 2.49 5.71L-4.08 5.71C-5.55 5.71-5.69 6.78-5.89 8.12C-6.42 11.34-9.31 12.68-12.93 12.68C-17.35 12.68-20.37 10.27-20.37 5.98L-20.37-7.97C-20.37-12.19-17.35-14.67-12.93-14.67C-9.31-14.67-7.43-13.67-6.02-11.46C-5.48-10.65-5.42-9.38-4.01-9.38L2.43-9.38C3.97-9.38 4.51-9.71 4.51-11.32C3.63-19.84-4.61-24.06-12.93-24.06C-20.91-24.06-30.90-19.44-30.90-8.91L-30.90 6.92C-30.90 17.44-20.91 22.07-12.93 22.07C-4.61 22.07 4.51 16.64 4.51 7.99Z" opacity="1" fill="#2B2B2B"/><path d="M46.95-23.06L40.31-23.06C39.10-23.06 38.37-22.65 38.37-21.11L38.37-5.96L23.41-5.96L23.41-21.11C23.41-22.65 22.74-23.06 21.47-23.06L14.83-23.06C13.62-23.06 12.89-22.65 12.89-21.11L12.89 19.12C12.89 20.66 13.62 21.06 14.83 21.06L21.47 21.06C22.74 21.06 23.41 20.66 23.41 19.12L23.41 3.97L38.37 3.97L38.37 19.12C38.37 20.66 39.10 21.06 40.31 21.06L46.95 21.06C48.16 21.06 48.89 20.66 48.89 19.12L48.89-21.11C48.89-22.65 48.16-23.06 46.95-23.06Z" opacity="1" fill="#2B2B2B"/></g><g transform="matrix(0.36570438985280407 0 0 0.4061132812500001 106.67728184263717 244.03499999999994)">
<g style="">
		<g clip-path="url(#CLIPPATH_39273)" transform="matrix(1 0 0 1 0 0)">
<clipPath id="CLIPPATH_39273">
	<rect height="512" width="512" ry="0" rx="0" y="-256" x="-256" transform="matrix(1 0 0 1 0 0)"/>
</clipPath>
<g style="">
		<g transform="matrix(1 0 0 1 -37.91384580247181 -17.798150755351912)">
<path stroke-linecap="round" d="M 128.4 153.7 v 169 c 0 12.1 12.8 19.7 23.5 14.2 l 147.3 -77.6 c 11 -5.8 11.5 -21.3 1 -27.8 l -147.3 -91.4 C 142.1 133.5 128.4 141.2 128.4 153.7 z" transform="translate(-218.08615419752817, -238.2018492446481)" style="stroke: none; stroke-width: 1; stroke-dasharray: none; stroke-linecap: butt; stroke-dashoffset: 0; stroke-linejoin: miter; stroke-miterlimit: 4; fill: rgb(251,96,84); fill-rule: nonzero; opacity: 0.83;"/>
</g>
		<g transform="matrix(1 0 0 1 48.699369191951234 41.967939203448395)">
<path stroke-linecap="round" d="M 204.3 203.4 v 189.2 c 0 13.5 14.3 22.1 26.3 15.9 l 164.9 -86.9 c 12.3 -6.5 12.9 -23.8 1.1 -31.1 L 231.7 188.1 C 219.7 180.7 204.3 189.3 204.3 203.4 z" transform="translate(-304.69936919195123, -297.9679392034484)" style="stroke: none; stroke-width: 1; stroke-dasharray: none; stroke-linecap: butt; stroke-dashoffset: 0; stroke-linejoin: miter; stroke-miterlimit: 4; fill: rgb(251,96,84); fill-rule: nonzero; opacity: 0.83;"/>
</g>
		<g transform="matrix(1 0 0 1 48.699369191951234 -71.61123154371127)">
<path stroke-linecap="round" d="M 204.3 89.8 V 279 c 0 13.5 14.3 22.1 26.3 15.9 L 395.5 208 c 12.3 -6.5 12.9 -23.8 1.1 -31.1 L 231.7 74.6 C 219.7 67.1 204.3 75.7 204.3 89.8 z" transform="translate(-304.69936919195123, -184.38876845628874)" style="stroke: none; stroke-width: 1; stroke-dasharray: none; stroke-linecap: butt; stroke-dashoffset: 0; stroke-linejoin: miter; stroke-miterlimit: 4; fill: rgb(251,96,84); fill-rule: nonzero; opacity: 0.83;"/>
</g>
</g>
</g>
</g>
</g>
<g style="" transform="matrix(1 0 0 1 317.5634894562729 270.82189705882354)"><path d="M-107.45-8.09L-114.06-8.09C-114.40-8.09-114.67-7.82-114.67-7.49L-114.67 5.51C-114.67 5.84-114.40 6.11-114.06 6.11L-114.03 6.11C-113.69 6.11-113.42 5.84-113.42 5.51L-113.42-0.33C-113.42-0.48-113.36-0.54-113.17-0.54L-108.19-0.54C-107.86-0.54-107.59-0.81-107.59-1.14L-107.59-1.18C-107.59-1.51-107.86-1.79-108.19-1.79L-113.21-1.79C-113.36-1.79-113.42-1.85-113.42-2.04L-113.42-6.63C-113.42-6.79-113.36-6.84-113.17-6.84L-107.45-6.84C-107.12-6.84-106.85-7.12-106.85-7.45L-106.85-7.49C-106.85-7.82-107.12-8.09-107.45-8.09Z" opacity="1" fill="#000000"/><path d="M-103.13-3.21L-103.17-3.21C-103.50-3.21-103.78-2.93-103.78-2.60L-103.78 5.51C-103.78 5.84-103.50 6.11-103.17 6.11L-103.13 6.11C-102.80 6.11-102.53 5.84-102.53 5.51L-102.53-2.60C-102.53-2.93-102.80-3.21-103.13-3.21Z" opacity="1" fill="#000000"/><path d="M-94.77-3.44C-95.53-3.44-96.60-3.25-97.26-2.51C-97.32-2.45-97.42-2.47-97.42-2.56C-97.42-2.60-97.42-2.56-97.42-2.62C-97.42-2.99-97.71-3.21-98.00-3.21L-98.08-3.21C-98.41-3.21-98.68-2.95-98.68-2.62L-98.66 5.51C-98.66 5.84-98.39 6.11-98.06 6.11L-98.00 6.11C-97.67 6.11-97.40 5.84-97.40 5.51C-97.40 5.51-97.40 0.37-97.40 0.14C-97.40-1.48-96.54-2.27-94.77-2.27C-93.43-2.27-91.97-1.44-91.97 0.49L-91.97 5.51C-91.97 5.84-91.70 6.11-91.37 6.11L-91.33 6.11C-91.00 6.11-90.72 5.84-90.72 5.51L-90.72 0.41C-90.72-2.60-93.00-3.44-94.77-3.44Z" opacity="1" fill="#000000"/><path d="M-77.50-7.50C-77.50-7.82-77.77-8.09-78.08-8.09L-78.16-8.09C-78.49-8.09-78.76-7.82-78.76-7.50C-78.76-7.50-78.76-2.68-78.76-1.92C-78.76-1.77-78.92-1.77-78.98-1.86C-79.91-2.99-81.02-3.44-82.32-3.44C-83.66-3.44-84.83-2.99-85.78-2.02C-86.76-1.07-87.22 0.08-87.22 1.44C-87.22 2.80-86.76 3.95-85.78 4.92C-84.83 5.88-83.66 6.36-82.32 6.36C-81.02 6.36-79.79 5.74-78.90 4.71C-78.80 4.59-78.76 4.73-78.76 4.79C-78.76 4.94-78.76 5.53-78.76 5.53C-78.76 5.86-78.49 6.11-78.16 6.11L-78.08 6.11C-77.77 6.11-77.50 5.86-77.50 5.53ZM-78.67 1.44C-78.67 3.46-80.30 5.20-82.32 5.20C-84.34 5.20-85.98 3.46-85.98 1.44C-85.98-0.58-84.34-2.27-82.32-2.27C-80.30-2.27-78.67-0.58-78.67 1.44Z" opacity="1" fill="#000000"/><path d="M-72.38 3.97L-72.50 3.97C-73.12 3.97-73.65 4.46-73.65 5.10L-73.65 5.20C-73.65 5.84-73.12 6.36-72.50 6.36L-72.38 6.36C-71.78 6.36-71.26 5.84-71.26 5.20L-71.26 5.10C-71.26 4.46-71.78 3.97-72.38 3.97Z" opacity="1" fill="#000000"/><path d="M-63.24-8.09L-66.80-8.09C-67.13-8.09-67.40-7.82-67.40-7.49L-67.40 5.51C-67.40 5.84-67.13 6.11-66.80 6.11L-66.74 6.11C-66.41 6.11-66.14 5.84-66.14 5.51L-66.14 0.94C-66.14 0.76-66.08 0.72-65.91 0.72L-63.24 0.72C-60.54 0.72-58.34-1.05-58.34-3.75C-58.34-6.45-60.54-8.09-63.24-8.09ZM-63.24-0.54L-65.93-0.54C-66.10-0.54-66.14-0.60-66.14-0.78L-66.14-6.63C-66.14-6.79-66.08-6.84-65.91-6.84L-63.24-6.84C-61.22-6.84-59.59-5.77-59.59-3.75C-59.59-1.73-61.22-0.54-63.24-0.54Z" opacity="1" fill="#000000"/><path d="M-51.55-3.44C-54.26-3.44-56.45-1.24-56.45 1.46C-56.45 4.17-54.26 6.36-51.55 6.36C-48.83 6.36-46.63 4.17-46.63 1.46C-46.63-1.24-48.83-3.44-51.55-3.44ZM-51.55 5.20C-53.56 5.20-55.21 3.48-55.21 1.46C-55.21-0.56-53.56-2.27-51.55-2.27C-49.53-2.27-47.90-0.56-47.90 1.46C-47.90 3.48-49.53 5.20-51.55 5.20Z" opacity="1" fill="#000000"/><path d="M-37.45 2.32C-37.92 1.19-40.27 0.20-40.76-0.06C-40.93-0.15-41.50-0.46-41.50-1.07C-41.50-1.83-40.82-2.27-40.31-2.27C-39.71-2.27-39.57-2.10-39.38-1.92C-39.10-1.69-38.70-1.13-38.25-1.48C-37.98-1.67-37.94-2.00-38.07-2.25C-38.37-2.78-39.22-3.23-39.94-3.40C-40.17-3.46-40.64-3.46-41.03-3.36C-41.34-3.26-41.63-3.17-41.89-2.97C-42.49-2.51-42.80-1.81-42.80-1.07C-42.80-0.08-42.31 0.47-41.85 0.84C-41.22 1.31-40.50 1.36-39.71 1.87C-38.81 2.45-38.44 2.88-38.50 3.58C-38.56 4.34-39.28 5.20-40.15 5.20C-41.07 5.20-41.61 4.77-42.02 4.20C-42.20 3.97-42.49 3.23-43.13 3.56C-43.66 3.83-43.42 4.40-43.40 4.44C-42.74 5.60-41.75 6.36-40.15 6.36C-37.72 6.36-36.77 3.99-37.45 2.32Z" opacity="1" fill="#000000"/><path d="M-30.55-3.21C-30.55-3.21-31.30-3.21-31.46-3.21C-31.62-3.21-31.69-3.30-31.69-3.46C-31.69-3.63-31.69-7.49-31.69-7.49C-31.69-7.82-31.97-8.09-32.30-8.09L-32.34-8.09C-32.67-8.09-32.94-7.82-32.94-7.49C-32.94-7.49-32.94-3.73-32.94-3.52C-32.94-3.32-33.02-3.21-33.17-3.21C-33.33-3.21-34.09-3.21-34.09-3.21C-34.42-3.21-34.69-2.93-34.69-2.60L-34.69-2.56C-34.69-2.23-34.42-1.96-34.09-1.96C-34.09-1.96-33.29-1.96-33.15-1.96C-33.00-1.96-32.94-1.88-32.94-1.73C-32.94-1.55-32.94 5.51-32.94 5.51C-32.94 5.84-32.67 6.11-32.34 6.11L-32.30 6.11C-31.97 6.11-31.69 5.84-31.69 5.51C-31.69 5.51-31.69-1.57-31.69-1.75C-31.69-1.92-31.64-1.96-31.44-1.96C-31.27-1.96-30.55-1.96-30.55-1.96C-30.22-1.96-29.94-2.23-29.94-2.56L-29.94-2.60C-29.94-2.93-30.22-3.21-30.55-3.21Z" opacity="1" fill="#000000"/><path d="M-25.18 3.97L-25.29 3.97C-25.92 3.97-26.44 4.46-26.44 5.10L-26.44 5.20C-26.44 5.84-25.92 6.36-25.29 6.36L-25.18 6.36C-24.58 6.36-24.05 5.84-24.05 5.20L-24.05 5.10C-24.05 4.46-24.58 3.97-25.18 3.97Z" opacity="1" fill="#000000"/><path d="M-14.31-7.72C-14.40-7.97-14.64-8.09-14.89-8.09C-15.12-8.09-15.38-7.97-15.47-7.72L-20.92 5.25C-21.04 5.55-20.90 5.92-20.59 6.03L-20.55 6.05C-20.24 6.19-19.89 6.03-19.75 5.74C-19.75 5.74-18.37 2.45-18.27 2.22C-18.18 1.99-18.04 1.91-17.81 1.91C-17.61 1.91-13.27 1.91-11.99 1.91C-11.76 1.91-11.60 1.99-11.52 2.16C-11.45 2.34-10.03 5.74-10.03 5.74C-9.89 6.03-9.54 6.19-9.23 6.05L-9.19 6.03C-8.88 5.92-8.72 5.55-8.86 5.25L-14.31-7.72ZM-17.51 0.39C-17.46 0.26-15.69-4.22-15.08-5.52C-14.93-5.85-14.85-5.85-14.71-5.52C-14.17-4.22-12.38 0.14-12.28 0.33C-12.19 0.57-12.22 0.64-12.50 0.64C-12.75 0.64-16.19 0.64-17.28 0.64C-17.50 0.64-17.57 0.57-17.51 0.39Z" opacity="1" fill="#000000"/><path d="M-0.81-3.44C-2.15-3.44-3.49-2.90-4.25-1.94C-4.33-1.85-4.50-1.79-4.50-2.04C-4.50-2.06-4.50-2.35-4.50-2.60C-4.50-2.93-4.77-3.21-5.11-3.21L-5.14-3.21C-5.48-3.21-5.73-2.93-5.73-2.60L-5.73 8.25C-5.73 8.58-5.48 8.83-5.14 8.83L-5.11 8.83C-4.77 8.83-4.50 8.58-4.50 8.25C-4.50 8.25-4.50 5.06-4.50 4.92C-4.50 4.71-4.37 4.75-4.33 4.81C-3.49 5.80-2.23 6.36-0.85 6.36C1.88 6.36 4.11 4.20 4.11 1.48C4.11-1.24 1.92-3.44-0.81-3.44ZM-0.85 5.20C-2.87 5.20-4.48 3.50-4.48 1.48C-4.48-0.54-2.83-2.27-0.81-2.27C1.22-2.27 2.87-0.54 2.87 1.48C2.87 3.50 1.20 5.20-0.85 5.20Z" opacity="1" fill="#000000"/><path d="M12.54-3.44C11.19-3.44 9.85-2.90 9.09-1.94C9.02-1.85 8.84-1.79 8.84-2.04C8.84-2.06 8.84-2.35 8.84-2.60C8.84-2.93 8.57-3.21 8.24-3.21L8.20-3.21C7.87-3.21 7.61-2.93 7.61-2.60L7.61 8.25C7.61 8.58 7.87 8.83 8.20 8.83L8.24 8.83C8.57 8.83 8.84 8.58 8.84 8.25C8.84 8.25 8.84 5.06 8.84 4.92C8.84 4.71 8.98 4.75 9.02 4.81C9.85 5.80 11.12 6.36 12.50 6.36C15.22 6.36 17.46 4.20 17.46 1.48C17.46-1.24 15.26-3.44 12.54-3.44ZM12.50 5.20C10.47 5.20 8.86 3.50 8.86 1.48C8.86-0.54 10.51-2.27 12.54-2.27C14.56-2.27 16.21-0.54 16.21 1.48C16.21 3.50 14.54 5.20 12.50 5.20Z" opacity="1" fill="#000000"/><path d="M21.60-8.09L21.56-8.09C21.23-8.09 20.96-7.82 20.96-7.49L20.96 5.51C20.96 5.84 21.23 6.11 21.56 6.11L21.60 6.11C21.93 6.11 22.20 5.84 22.20 5.51L22.20-7.49C22.20-7.82 21.93-8.09 21.60-8.09Z" opacity="1" fill="#000000"/><path d="M28.33 7.69L33.27-2.80C33.37-3.03 33.25-3.21 33.00-3.21L32.49-3.21C32.24-3.21 31.95-3.03 31.83-2.80L29.48 2.76C29.26 3.23 29.32 3.25 29.09 2.76L26.75-2.80C26.64-3.03 26.35-3.21 26.09-3.21L25.59-3.21C25.33-3.21 25.22-3.03 25.31-2.80L28.39 3.76C28.56 4.15 28.56 4.20 28.39 4.59L26.91 7.69C26.79 7.92 26.91 8.11 27.16 8.11L27.67 8.11C27.94 8.11 28.23 7.92 28.33 7.69Z" opacity="1" fill="#000000"/><path d="M37.65 3.97L37.53 3.97C36.91 3.97 36.38 4.46 36.38 5.10L36.38 5.20C36.38 5.84 36.91 6.36 37.53 6.36L37.65 6.36C38.25 6.36 38.77 5.84 38.77 5.20L38.77 5.10C38.77 4.46 38.25 3.97 37.65 3.97Z" opacity="1" fill="#000000"/><path d="M46.22-2.12C44.43-2.04 43.81-3.48 43.81-4.65C43.81-6.03 44.78-7.15 46.26-7.15C47.21-7.15 47.76-6.65 48.42-5.85C48.91-5.27 49.92-5.81 49.49-6.57C48.85-7.70 47.68-8.32 46.26-8.32C44.12-8.32 42.64-6.67 42.64-4.65C42.64-2.39 44.30-0.85 46.22-0.93C47.99-1.03 49.28 0.37 49.28 2.04C49.28 3.89 48.11 5.20 46.26 5.20C45.04 5.20 44.30 4.50 43.69 3.62C43.05 2.73 41.94 3.46 42.49 4.36C43.25 5.60 44.61 6.36 46.26 6.36C48.75 6.36 50.46 4.53 50.46 2.04C50.46-0.87 47.92-2.18 46.22-2.12Z" opacity="1" fill="#000000"/><path d="M61.18-3.21L61.14-3.21C60.81-3.21 60.54-2.93 60.54-2.60L60.54 2.40C60.54 4.32 59.27 5.20 57.91 5.20C56.57 5.20 55.29 4.32 55.29 2.40L55.29-2.60C55.29-2.93 55.01-3.21 54.68-3.21L54.63-3.21C54.29-3.21 54.02-2.93 54.02-2.60L54.02 2.47C54.02 5.49 56.14 6.36 57.91 6.36C59.68 6.36 61.78 5.49 61.78 2.47L61.78-2.60C61.78-2.93 61.51-3.21 61.18-3.21Z" opacity="1" fill="#000000"/><path d="M73.20 3.58C72.54 4.52 71.47 5.20 70.24 5.20C68.22 5.20 66.59 3.46 66.59 1.44C66.59-0.58 68.22-2.27 70.24-2.27C71.39-2.27 72.40-1.69 73.08-0.85C73.39-0.46 73.51-0.60 73.51-0.89C73.51-1.03 73.51-1.63 73.51-1.96C73.51-2.16 73.43-2.27 73.36-2.35C72.50-3.05 71.41-3.44 70.24-3.44C67.52-3.44 65.34-1.26 65.34 1.44C65.34 4.15 67.52 6.36 70.24 6.36C71.41 6.36 72.50 5.93 73.34 5.25C73.45 5.16 73.51 5.04 73.51 4.85C73.51 4.50 73.51 3.87 73.51 3.64C73.51 3.31 73.32 3.43 73.20 3.58Z" opacity="1" fill="#000000"/><path d="M84.48 3.58C83.82 4.52 82.75 5.20 81.52 5.20C79.50 5.20 77.87 3.46 77.87 1.44C77.87-0.58 79.50-2.27 81.52-2.27C82.67-2.27 83.68-1.69 84.36-0.85C84.68-0.46 84.79-0.60 84.79-0.89C84.79-1.03 84.79-1.63 84.79-1.96C84.79-2.16 84.71-2.27 84.64-2.35C83.78-3.05 82.69-3.44 81.52-3.44C78.80-3.44 76.62-1.26 76.62 1.44C76.62 4.15 78.80 6.36 81.52 6.36C82.69 6.36 83.78 5.93 84.62 5.25C84.73 5.16 84.79 5.04 84.79 4.85C84.79 4.50 84.79 3.87 84.79 3.64C84.79 3.31 84.60 3.43 84.48 3.58Z" opacity="1" fill="#000000"/><path d="M97.47 0.47C97.34-0.50 96.93-1.34 96.25-2.02C95.28-2.99 94.13-3.44 92.77-3.44C91.41-3.44 90.26-2.99 89.29-2.02C88.33-1.07 87.85 0.08 87.85 1.44C87.85 2.80 88.33 3.95 89.29 4.92C90.26 5.88 91.41 6.36 92.77 6.36C94.13 6.36 95.28 5.88 96.25 4.90C96.33 4.83 96.40 4.75 96.48 4.65C96.77 4.34 96.75 3.89 96.40 3.66C95.96 3.39 95.68 3.58 95.24 4.13C94.79 4.67 93.76 5.20 92.77 5.20C91.76 5.20 90.90 4.71 90.20 4.01C89.56 3.39 89.21 2.59 89.13 1.62C89.11 1.33 89.17 1.25 89.44 1.25L96.89 1.25C97.43 1.25 97.51 0.76 97.47 0.47ZM95.76 0.00L89.77 0.00C89.46 0.00 89.36-0.02 89.50-0.27C89.65-0.52 89.87-0.81 90.18-1.13C90.90-1.85 91.76-2.27 92.77-2.27C93.76-2.27 94.61-1.85 95.33-1.13C95.61-0.87 95.80-0.62 95.94-0.37C96.05-0.17 96.17 0.00 95.76 0.00Z" opacity="1" fill="#000000"/><path d="M106.62 2.32C106.15 1.19 103.79 0.20 103.31-0.06C103.13-0.15 102.57-0.46 102.57-1.07C102.57-1.83 103.25-2.27 103.76-2.27C104.36-2.27 104.50-2.10 104.69-1.92C104.96-1.69 105.37-1.13 105.82-1.48C106.09-1.67 106.13-2.00 105.99-2.25C105.70-2.78 104.85-3.23 104.13-3.40C103.89-3.46 103.43-3.46 103.04-3.36C102.73-3.26 102.43-3.17 102.18-2.97C101.58-2.51 101.27-1.81 101.27-1.07C101.27-0.08 101.75 0.47 102.22 0.84C102.84 1.31 103.56 1.36 104.36 1.87C105.25 2.45 105.62 2.88 105.56 3.58C105.51 4.34 104.79 5.20 103.91 5.20C103.00 5.20 102.45 4.77 102.04 4.20C101.87 3.97 101.58 3.23 100.94 3.56C100.41 3.83 100.64 4.40 100.66 4.44C101.32 5.60 102.32 6.36 103.91 6.36C106.34 6.36 107.30 3.99 106.62 2.32Z" opacity="1" fill="#000000"/><path d="M115.41 2.32C114.94 1.19 112.59 0.20 112.10-0.06C111.93-0.15 111.36-0.46 111.36-1.07C111.36-1.83 112.04-2.27 112.55-2.27C113.15-2.27 113.29-2.10 113.48-1.92C113.75-1.69 114.16-1.13 114.61-1.48C114.88-1.67 114.92-2.00 114.78-2.25C114.49-2.78 113.64-3.23 112.92-3.40C112.68-3.46 112.22-3.46 111.83-3.36C111.52-3.26 111.22-3.17 110.97-2.97C110.37-2.51 110.06-1.81 110.06-1.07C110.06-0.08 110.54 0.47 111.01 0.84C111.63 1.31 112.35 1.36 113.15 1.87C114.05 2.45 114.41 2.88 114.36 3.58C114.30 4.34 113.58 5.20 112.70 5.20C111.79 5.20 111.24 4.77 110.84 4.20C110.66 3.97 110.37 3.23 109.73 3.56C109.20 3.83 109.44 4.40 109.45 4.44C110.12 5.60 111.11 6.36 112.70 6.36C115.13 6.36 116.09 3.99 115.41 2.32Z" opacity="1" fill="#000000"/></g><g style="" transform="matrix(1 0 0 1 203.6129260234088 226.4983970588235)"><path d="M-11.78-2.82L-11.78-2.82Q-11.78-5.17-10.88-7.29Q-9.98-9.42-8.37-11.03Q-6.76-12.64-4.63-13.62Q-2.51-14.60 0-14.60L0-14.60Q2.36-14.60 4.48-13.70Q6.60-12.79 8.21-11.18Q9.82-9.57 10.80-7.41Q11.78-5.25 11.78-2.82L11.78-2.82Q11.78-0.77 11.08 1.11L11.08 1.11L11.78 1.11Q15.08 1.11 17.36-1.17Q19.64-3.45 19.64-6.74L19.64-6.74L19.64-14.60Q19.64-17.90 17.36-20.18Q15.08-22.45 11.78-22.45L11.78-22.45L-11.78-22.45Q-15.08-22.45-17.36-20.18Q-19.64-17.90-19.64-14.60L-19.64-14.60L-19.64 8.97Q-19.64 12.26-17.36 14.54Q-15.08 16.82-11.78 16.82L-11.78 16.82L11.78 16.82L11.78 24.68L-11.78 24.68Q-14.92 24.68-17.79 23.46Q-20.66 22.24-22.82 20.12Q-24.98 18.00-26.24 15.13Q-27.49 12.26-27.49 8.97L-27.49 8.97L-27.49-14.60Q-27.49-17.74-26.27-20.57Q-25.06-23.40-22.94-25.56Q-20.82-27.72-17.95-29.01Q-15.08-30.31-11.78-30.31L-11.78-30.31L11.78-30.31Q14.85-30.31 17.71-29.09Q20.58-27.87 22.74-25.75Q24.90-23.63 26.20-20.77Q27.49-17.90 27.49-14.60L27.49-14.60L27.49-6.74Q27.49-3.60 26.27-0.77Q25.06 2.05 22.94 4.21Q20.82 6.37 17.95 7.67Q15.08 8.97 11.78 8.97L11.78 8.97L0 8.97Q-2.36 8.97-4.48 8.06Q-6.60 7.16-8.21 5.55Q-9.82 3.94-10.76 1.82Q-11.70-0.30-11.78-2.82ZM-3.93-2.82L-3.93-2.82Q-3.93-1.17-2.79-0.03Q-1.65 1.11 0 1.11L0 1.11Q1.65 1.11 2.79-0.03Q3.93-1.17 3.93-2.82L3.93-2.82Q3.93-4.47 2.79-5.61Q1.65-6.74 0-6.74L0-6.74Q-1.65-6.74-2.79-5.61Q-3.93-4.47-3.93-2.82Z" opacity="1" fill="#000000"/></g></svg>